<svg width="112" height="23" viewBox="0 0 112 23" fill="none" xmlns="http://www.w3.org/2000/svg">
<rect width="112" height="23" rx="11.5" fill="#E3EBFF"/>
<path d="M18.4607 7.97036L18.9062 8.19735L18.4607 7.97036ZM18.9704 7.46049L19.1974 7.906L18.9704 7.46049ZM18.9704 16.5395L19.1974 16.094H19.1974L18.9704 16.5395ZM18.4607 16.0296L18.0152 16.2566L18.4607 16.0296ZM27.5398 16.0296L27.0943 15.8027L27.5398 16.0296ZM27.0297 16.5395L26.8027 16.094L27.0297 16.5395ZM27.5398 7.97036L27.0943 8.19735L27.5398 7.97036ZM27.0297 7.46049L27.2567 7.01499L27.0297 7.46049ZM23.0002 10.9167C22.724 10.9167 22.5002 11.1405 22.5002 11.4167C22.5002 11.6928 22.724 11.9167 23.0002 11.9167V10.9167ZM25.3335 11.9167C25.6096 11.9167 25.8335 11.6928 25.8335 11.4167C25.8335 11.1405 25.6096 10.9167 25.3335 10.9167V11.9167ZM23.0002 9.16667C22.724 9.16667 22.5002 9.39052 22.5002 9.66667C22.5002 9.94281 22.724 10.1667 23.0002 10.1667V9.16667ZM25.3335 10.1667C25.6096 10.1667 25.8335 9.94281 25.8335 9.66667C25.8335 9.39052 25.6096 9.16667 25.3335 9.16667V10.1667ZM20.1668 16.6667C20.1668 16.9428 20.3907 17.1667 20.6668 17.1667C20.943 17.1667 21.1668 16.9428 21.1668 16.6667H20.1668ZM21.1668 7.33333C21.1668 7.05719 20.943 6.83333 20.6668 6.83333C20.3907 6.83333 20.1668 7.05719 20.1668 7.33333L21.1668 7.33333ZM27.1668 9.20001V14.8H28.1668V9.20001H27.1668ZM25.8003 16.1667H20.2003V17.1667H25.8003V16.1667ZM18.8335 14.8V9.20001H17.8335V14.8H18.8335ZM20.2003 7.83333H25.8003V6.83333H20.2003V7.83333ZM18.8335 9.20001C18.8335 8.86506 18.8339 8.64392 18.8477 8.47446C18.8611 8.31084 18.8845 8.2399 18.9062 8.19735L18.0152 7.74336C17.9097 7.95038 17.8695 8.16756 17.8511 8.39303C17.8331 8.61266 17.8335 8.88156 17.8335 9.20001H18.8335ZM20.2003 6.83333C19.8818 6.83333 19.6129 6.83294 19.3932 6.85089C19.1677 6.8693 18.9504 6.90949 18.7434 7.01499L19.1974 7.906C19.2399 7.88433 19.3109 7.86094 19.4746 7.84757C19.6441 7.83372 19.8653 7.83333 20.2003 7.83333V6.83333ZM18.9062 8.19735C18.9701 8.07178 19.0721 7.96985 19.1974 7.906L18.7434 7.01499C18.4296 7.17484 18.1749 7.42989 18.0152 7.74336L18.9062 8.19735ZM20.2003 16.1667C19.8653 16.1667 19.6441 16.1663 19.4746 16.1524C19.3109 16.139 19.2399 16.1157 19.1974 16.094L18.7434 16.985C18.9504 17.0905 19.1677 17.1307 19.3932 17.1491C19.6129 17.1671 19.8818 17.1667 20.2003 17.1667V16.1667ZM17.8335 14.8C17.8335 15.1185 17.8331 15.3874 17.8511 15.607C17.8695 15.8324 17.9097 16.0496 18.0152 16.2566L18.9062 15.8027C18.8845 15.7601 18.8611 15.6892 18.8477 15.5255C18.8339 15.3561 18.8335 15.135 18.8335 14.8H17.8335ZM19.1974 16.094C19.072 16.0301 18.9701 15.9282 18.9062 15.8027L18.0152 16.2566C18.1749 16.5701 18.4297 16.8251 18.7434 16.985L19.1974 16.094ZM27.1668 14.8C27.1668 15.135 27.1665 15.3561 27.1527 15.5256C27.1393 15.6893 27.1159 15.7602 27.0943 15.8027L27.9853 16.2566C28.0908 16.0496 28.131 15.8323 28.1493 15.6069C28.1672 15.3873 28.1668 15.1184 28.1668 14.8H27.1668ZM25.8003 17.1667C26.1187 17.1667 26.3876 17.1671 26.6072 17.1491C26.8326 17.1307 27.0497 17.0905 27.2567 16.985L26.8027 16.094C26.7601 16.1157 26.6892 16.1391 26.5257 16.1524C26.3563 16.1663 26.1352 16.1667 25.8003 16.1667V17.1667ZM27.0943 15.8027C27.0305 15.9279 26.9284 16.03 26.8027 16.094L27.2567 16.985C27.5701 16.8253 27.8254 16.5705 27.9853 16.2566L27.0943 15.8027ZM28.1668 9.20001C28.1668 8.88161 28.1672 8.6127 28.1493 8.39311C28.131 8.16767 28.0908 7.95043 27.9853 7.74336L27.0943 8.19735C27.1159 8.23984 27.1393 8.31073 27.1527 8.47438C27.1665 8.64387 27.1668 8.86501 27.1668 9.20001H28.1668ZM25.8003 7.83333C26.1352 7.83333 26.3563 7.83372 26.5257 7.84757C26.6892 7.86093 26.7601 7.8843 26.8027 7.906L27.2567 7.01499C27.0497 6.90952 26.8326 6.86931 26.6072 6.85089C26.3876 6.83294 26.1187 6.83333 25.8003 6.83333V7.83333ZM27.9853 7.74336C27.8254 7.42955 27.5701 7.17467 27.2567 7.01499L26.8027 7.906C26.9284 7.97002 27.0305 8.07212 27.0943 8.19735L27.9853 7.74336ZM23.0002 11.9167H25.3335V10.9167H23.0002V11.9167ZM23.0002 10.1667H25.3335V9.16667H23.0002V10.1667ZM21.1668 16.6667L21.1668 7.33333L20.1668 7.33333L20.1668 16.6667H21.1668Z" fill="#1D4ED8"/>
<path d="M43.23 8.56H39.72V10.84C39.8733 10.6267 40.1 10.4533 40.4 10.32C40.7 10.18 41.0233 10.11 41.37 10.11C41.9233 10.11 42.3733 10.2267 42.72 10.46C43.0667 10.6867 43.3133 10.9833 43.46 11.35C43.6133 11.71 43.69 12.0933 43.69 12.5C43.69 12.98 43.6 13.41 43.42 13.79C43.24 14.17 42.9633 14.47 42.59 14.69C42.2233 14.91 41.7667 15.02 41.22 15.02C40.52 15.02 39.9533 14.84 39.52 14.48C39.0867 14.12 38.8233 13.64 38.73 13.04H39.62C39.7067 13.42 39.89 13.7167 40.17 13.93C40.45 14.1433 40.8033 14.25 41.23 14.25C41.7567 14.25 42.1533 14.0933 42.42 13.78C42.6867 13.46 42.82 13.04 42.82 12.52C42.82 12 42.6867 11.6 42.42 11.32C42.1533 11.0333 41.76 10.89 41.24 10.89C40.8867 10.89 40.5767 10.9767 40.31 11.15C40.05 11.3167 39.86 11.5467 39.74 11.84H38.88V7.76H43.23V8.56ZM52.3753 10.07C52.3753 10.65 52.1753 11.1333 51.7753 11.52C51.382 11.9 50.7786 12.09 49.9653 12.09H48.6253V15H47.7153V8.03H49.9653C50.752 8.03 51.3486 8.22 51.7553 8.6C52.1686 8.98 52.3753 9.47 52.3753 10.07ZM49.9653 11.34C50.472 11.34 50.8453 11.23 51.0853 11.01C51.3253 10.79 51.4453 10.4767 51.4453 10.07C51.4453 9.21 50.952 8.78 49.9653 8.78H48.6253V11.34H49.9653ZM54.4163 10.41C54.5763 10.0967 54.803 9.85333 55.0963 9.68C55.3963 9.50667 55.7597 9.42 56.1863 9.42V10.36H55.9463C54.9263 10.36 54.4163 10.9133 54.4163 12.02V15H53.5063V9.52H54.4163V10.41ZM59.6268 15.09C59.1135 15.09 58.6468 14.9733 58.2268 14.74C57.8135 14.5067 57.4868 14.1767 57.2468 13.75C57.0135 13.3167 56.8968 12.8167 56.8968 12.25C56.8968 11.69 57.0168 11.1967 57.2568 10.77C57.5035 10.3367 57.8368 10.0067 58.2568 9.78C58.6768 9.54667 59.1468 9.43 59.6668 9.43C60.1868 9.43 60.6568 9.54667 61.0768 9.78C61.4968 10.0067 61.8268 10.3333 62.0668 10.76C62.3135 11.1867 62.4368 11.6833 62.4368 12.25C62.4368 12.8167 62.3101 13.3167 62.0568 13.75C61.8101 14.1767 61.4735 14.5067 61.0468 14.74C60.6201 14.9733 60.1468 15.09 59.6268 15.09ZM59.6268 14.29C59.9535 14.29 60.2601 14.2133 60.5468 14.06C60.8335 13.9067 61.0635 13.6767 61.2368 13.37C61.4168 13.0633 61.5068 12.69 61.5068 12.25C61.5068 11.81 61.4201 11.4367 61.2468 11.13C61.0735 10.8233 60.8468 10.5967 60.5668 10.45C60.2868 10.2967 59.9835 10.22 59.6568 10.22C59.3235 10.22 59.0168 10.2967 58.7368 10.45C58.4635 10.5967 58.2435 10.8233 58.0768 11.13C57.9101 11.4367 57.8268 11.81 57.8268 12.25C57.8268 12.6967 57.9068 13.0733 58.0668 13.38C58.2335 13.6867 58.4535 13.9167 58.7268 14.07C59.0001 14.2167 59.3001 14.29 59.6268 14.29ZM65.8933 9.43C66.3666 9.43 66.7799 9.53333 67.1333 9.74C67.4933 9.94667 67.7599 10.2067 67.9333 10.52V9.52H68.8533V15.12C68.8533 15.62 68.7466 16.0633 68.5333 16.45C68.3199 16.8433 68.0133 17.15 67.6133 17.37C67.2199 17.59 66.7599 17.7 66.2333 17.7C65.5133 17.7 64.9133 17.53 64.4333 17.19C63.9533 16.85 63.6699 16.3867 63.5833 15.8H64.4833C64.5833 16.1333 64.7899 16.4 65.1033 16.6C65.4166 16.8067 65.7933 16.91 66.2333 16.91C66.7333 16.91 67.1399 16.7533 67.4533 16.44C67.7733 16.1267 67.9333 15.6867 67.9333 15.12V13.97C67.7533 14.29 67.4866 14.5567 67.1333 14.77C66.7799 14.9833 66.3666 15.09 65.8933 15.09C65.4066 15.09 64.9633 14.97 64.5633 14.73C64.1699 14.49 63.8599 14.1533 63.6333 13.72C63.4066 13.2867 63.2933 12.7933 63.2933 12.24C63.2933 11.68 63.4066 11.19 63.6333 10.77C63.8599 10.3433 64.1699 10.0133 64.5633 9.78C64.9633 9.54667 65.4066 9.43 65.8933 9.43ZM67.9333 12.25C67.9333 11.8367 67.8499 11.4767 67.6833 11.17C67.5166 10.8633 67.2899 10.63 67.0033 10.47C66.7233 10.3033 66.4133 10.22 66.0733 10.22C65.7333 10.22 65.4233 10.3 65.1433 10.46C64.8633 10.62 64.6399 10.8533 64.4733 11.16C64.3066 11.4667 64.2233 11.8267 64.2233 12.24C64.2233 12.66 64.3066 13.0267 64.4733 13.34C64.6399 13.6467 64.8633 13.8833 65.1433 14.05C65.4233 14.21 65.7333 14.29 66.0733 14.29C66.4133 14.29 66.7233 14.21 67.0033 14.05C67.2899 13.8833 67.5166 13.6467 67.6833 13.34C67.8499 13.0267 67.9333 12.6633 67.9333 12.25ZM71.3011 10.41C71.4611 10.0967 71.6878 9.85333 71.9811 9.68C72.2811 9.50667 72.6444 9.42 73.0711 9.42V10.36H72.8311C71.8111 10.36 71.3011 10.9133 71.3011 12.02V15H70.3911V9.52H71.3011V10.41ZM73.7816 12.24C73.7816 11.68 73.8949 11.19 74.1216 10.77C74.3482 10.3433 74.6582 10.0133 75.0516 9.78C75.4516 9.54667 75.8949 9.43 76.3816 9.43C76.8616 9.43 77.2782 9.53333 77.6316 9.74C77.9849 9.94667 78.2482 10.2067 78.4216 10.52V9.52H79.3416V15H78.4216V13.98C78.2416 14.3 77.9716 14.5667 77.6116 14.78C77.2582 14.9867 76.8449 15.09 76.3716 15.09C75.8849 15.09 75.4449 14.97 75.0516 14.73C74.6582 14.49 74.3482 14.1533 74.1216 13.72C73.8949 13.2867 73.7816 12.7933 73.7816 12.24ZM78.4216 12.25C78.4216 11.8367 78.3382 11.4767 78.1716 11.17C78.0049 10.8633 77.7782 10.63 77.4916 10.47C77.2116 10.3033 76.9016 10.22 76.5616 10.22C76.2216 10.22 75.9116 10.3 75.6316 10.46C75.3516 10.62 75.1282 10.8533 74.9616 11.16C74.7949 11.4667 74.7116 11.8267 74.7116 12.24C74.7116 12.66 74.7949 13.0267 74.9616 13.34C75.1282 13.6467 75.3516 13.8833 75.6316 14.05C75.9116 14.21 76.2216 14.29 76.5616 14.29C76.9016 14.29 77.2116 14.21 77.4916 14.05C77.7782 13.8833 78.0049 13.6467 78.1716 13.34C78.3382 13.0267 78.4216 12.6633 78.4216 12.25ZM87.4694 9.42C87.896 9.42 88.276 9.51 88.6094 9.69C88.9427 9.86333 89.206 10.1267 89.3994 10.48C89.5927 10.8333 89.6894 11.2633 89.6894 11.77V15H88.7894V11.9C88.7894 11.3533 88.6527 10.9367 88.3794 10.65C88.1127 10.3567 87.7494 10.21 87.2894 10.21C86.816 10.21 86.4394 10.3633 86.1594 10.67C85.8794 10.97 85.7394 11.4067 85.7394 11.98V15H84.8394V11.9C84.8394 11.3533 84.7027 10.9367 84.4294 10.65C84.1627 10.3567 83.7994 10.21 83.3394 10.21C82.866 10.21 82.4894 10.3633 82.2094 10.67C81.9294 10.97 81.7894 11.4067 81.7894 11.98V15H80.8794V9.52H81.7894V10.31C81.9694 10.0233 82.2094 9.80333 82.5094 9.65C82.816 9.49667 83.1527 9.42 83.5194 9.42C83.9794 9.42 84.386 9.52333 84.7394 9.73C85.0927 9.93667 85.356 10.24 85.5294 10.64C85.6827 10.2533 85.936 9.95333 86.2894 9.74C86.6427 9.52667 87.036 9.42 87.4694 9.42ZM93.1221 15.09C92.7021 15.09 92.3254 15.02 91.9921 14.88C91.6588 14.7333 91.3954 14.5333 91.2021 14.28C91.0088 14.02 90.9021 13.7233 90.8821 13.39H91.8221C91.8488 13.6633 91.9754 13.8867 92.2021 14.06C92.4354 14.2333 92.7388 14.32 93.1121 14.32C93.4588 14.32 93.7321 14.2433 93.9321 14.09C94.1321 13.9367 94.2321 13.7433 94.2321 13.51C94.2321 13.27 94.1254 13.0933 93.9121 12.98C93.6988 12.86 93.3688 12.7433 92.9221 12.63C92.5154 12.5233 92.1821 12.4167 91.9221 12.31C91.6688 12.1967 91.4488 12.0333 91.2621 11.82C91.0821 11.6 90.9921 11.3133 90.9921 10.96C90.9921 10.68 91.0754 10.4233 91.2421 10.19C91.4088 9.95667 91.6454 9.77333 91.9521 9.64C92.2588 9.5 92.6088 9.43 93.0021 9.43C93.6088 9.43 94.0988 9.58333 94.4721 9.89C94.8454 10.1967 95.0454 10.6167 95.0721 11.15H94.1621C94.1421 10.8633 94.0254 10.6333 93.8121 10.46C93.6054 10.2867 93.3254 10.2 92.9721 10.2C92.6454 10.2 92.3854 10.27 92.1921 10.41C91.9988 10.55 91.9021 10.7333 91.9021 10.96C91.9021 11.14 91.9588 11.29 92.0721 11.41C92.1921 11.5233 92.3388 11.6167 92.5121 11.69C92.6921 11.7567 92.9388 11.8333 93.2521 11.92C93.6454 12.0267 93.9654 12.1333 94.2121 12.24C94.4588 12.34 94.6688 12.4933 94.8421 12.7C95.0221 12.9067 95.1154 13.1767 95.1221 13.51C95.1221 13.81 95.0388 14.08 94.8721 14.32C94.7054 14.56 94.4688 14.75 94.1621 14.89C93.8621 15.0233 93.5154 15.09 93.1221 15.09Z" fill="#1D4ED8"/>
</svg>
